<svg width="48" height="48" viewBox="0 0 48 48" fill="none" xmlns="http://www.w3.org/2000/svg">
<circle cx="24" cy="24" r="24" fill="#121010"/>
<path d="M27.179 21.0994C27.0606 20.7159 26.8973 20.3726 26.6889 20.0696C26.4853 19.7618 26.2391 19.4991 25.9503 19.2812C25.6662 19.0634 25.3395 18.9001 24.9702 18.7912C24.6009 18.6776 24.1984 18.6207 23.7628 18.6207C22.9815 18.6207 22.2855 18.8172 21.6747 19.2102C21.0639 19.6032 20.5833 20.1809 20.233 20.9432C19.8873 21.7008 19.7145 22.6241 19.7145 23.7131C19.7145 24.8116 19.8873 25.742 20.233 26.5043C20.5786 27.2666 21.0592 27.8466 21.6747 28.2443C22.2902 28.6373 23.0052 28.8338 23.8196 28.8338C24.5582 28.8338 25.1974 28.6918 25.7372 28.4077C26.2817 28.1236 26.7008 27.7211 26.9943 27.2003C27.2879 26.6747 27.4347 26.0592 27.4347 25.3537L28.0312 25.446H24.0824V23.3864H29.9844V25.1335C29.9844 26.3788 29.7192 27.456 29.1889 28.3651C28.6586 29.2741 27.9295 29.9749 27.0014 30.4673C26.0734 30.955 25.008 31.1989 23.8054 31.1989C22.4654 31.1989 21.2888 30.8982 20.2756 30.2969C19.267 29.6908 18.4787 28.8314 17.9105 27.7188C17.3471 26.6013 17.0653 25.2756 17.0653 23.7415C17.0653 22.5672 17.2311 21.5185 17.5625 20.5952C17.8987 19.6719 18.3674 18.8883 18.9688 18.2443C19.5701 17.5956 20.2756 17.1032 21.0852 16.767C21.8949 16.4261 22.7756 16.2557 23.7273 16.2557C24.5322 16.2557 25.2827 16.3741 25.9787 16.6108C26.6747 16.8428 27.2926 17.1742 27.8324 17.6051C28.3769 18.036 28.8243 18.5473 29.1747 19.1392C29.5251 19.7311 29.7547 20.3845 29.8636 21.0994H27.179Z" fill="white"/>
</svg>
